<?xml version="1.0" encoding="utf-8"?>
<!-- Generator: Adobe Illustrator 21.1.0, SVG Export Plug-In . SVG Version: 6.00 Build 0)  -->
<svg version="1.1" id="Layer_1" xmlns="http://www.w3.org/2000/svg" xmlns:xlink="http://www.w3.org/1999/xlink" x="0px" y="0px"
	 viewBox="0 0 125.7 53.2" style="enable-background:new 0 0 125.7 53.2;" xml:space="preserve">
<style type="text/css">
	.st0{fill:#D71E48;}
</style>
<path class="st0" d="M81.6,1.7C79.9,2,78,2.4,76.4,2.8C70.5,1,63.7,0,55.8,0.7C55.8,0.7,67-1.4,81.6,1.7 M125.7,29.9
	c-4.8-6.5-10.1-11.5-15.6-15.6c-3,0.6-7.3,1.7-11.1,2.9c2.3,2.5,3.4,4.3,3.4,4.3C43.2,21.3,0,53.2,0,53.2
	c54.6-15.7,105.2-10.8,105.2-10.8l-5.4,5.1l12.3-6l-18.8-7.3C109.7,26.3,125.7,29.9,125.7,29.9 M89.4,3.7c-2.5,0.4-5.1,1.1-6.7,1.5
	c4.2,1.9,7.7,4.2,10.5,6.5c2.1-0.8,5.2-1.7,8.8-2.6C97.7,6.8,93.4,5,89.4,3.7"/>
</svg>
